<svg xmlns="http://www.w3.org/2000/svg" version="1.1" xmlns:xlink="http://www.w3.org/1999/xlink" xmlns:svgjs="http://svgjs.dev/svgjs" width="1500" height="1500" viewBox="0 0 1500 1500"><rect width="1500" height="1500" fill="#000000"></rect><g transform="matrix(0.6666666666666666,0,0,0.6666666666666666,249.39393939393938,435.99032258064517)"><svg viewBox="0 0 396 248" data-background-color="#000000" preserveAspectRatio="xMidYMid meet" height="939" width="1500" xmlns="http://www.w3.org/2000/svg" xmlns:xlink="http://www.w3.org/1999/xlink"><g id="tight-bounds" transform="matrix(1,0,0,1,0.2400000000000091,0.4000000000000057)"><svg viewBox="0 0 395.52 247.2" height="247.2" width="395.52"><rect width="395.52" height="247.2" fill="url(#6898231d-3fd3-471e-9a40-1a5ac8dd0bd5)" mask="url(#f3f0575a-b8e1-454c-92a4-03b95221f92d)" data-fill-palette-color="tertiary"></rect><g><svg></svg></g><g><svg viewBox="0 0 395.52 247.2" height="247.2" width="395.52"><mask id="5c334652-58f2-40f9-9b64-ebf39ed10011"><rect width="395.52" height="247.2" fill="white"></rect><g transform="matrix(1,0,0,1,0,94.11046101309049)" id="clone"><svg viewBox="0 0 395.52 58.97907797381901" height="58.97907797381901" width="395.52"><g><svg viewBox="0 0 395.52 58.97907797381901" height="58.97907797381901" width="395.52"><g><svg viewBox="0 0 395.52 58.97907797381901" height="58.97907797381901" width="395.52"><g><svg viewBox="0 0 395.52 58.97907797381901" height="58.97907797381901" width="395.52"><g id="SvgjsG2393"><svg viewBox="0 0 395.52 58.97907797381901" height="58.97907797381901" width="395.52" id="SvgjsSvg2392"><g><svg viewBox="0 0 395.52 58.97907797381901" height="58.97907797381901" width="395.52"><g transform="matrix(1,0,0,1,0,0)"><svg width="395.52" viewBox="-2.25 -36.7 264.52 40.300000000000004" height="58.97907797381901" data-palette-color="url(#6c4d3ce7-dfec-42ea-9545-b2669480c793)"><path d="M12.5-7.35L10.55-0.05 1.75-2.45 3.3-8.25 3.3-23.5 0.75-24.2 2.7-31.5 10.85-29.25 10.85-29.2 10.85-26.25 12.3-31.5 22.75-28.65 23.55-31.5 35-28.35 33.35-22.35 33.35-7.8 35-7.35 33.05-0.05 25.2-2.2 25.8-4.35 25.8-23.05 22.55-23.95 22.1-22.35 22.1-7.8 23.75-7.35 21.8-0.05 13.95-2.2 14.55-4.35 14.55-23.05 10.85-24.05 10.85-7.8 12.5-7.35ZM47.25-7.3L45.3 0 36.5-2.4 38.05-8.2 38.05-16.5 36.5-16.9 38.45-24.2 47.25-21.8 45.6-15.6 45.6-7.75 47.25-7.3ZM46.25-30.3L44.8-25.1 37.4-27.15 38.85-32.35 46.25-30.3ZM60.25-7.3L58.3 0 49.5-2.4 51.05-8.2 51.05-21.15 48.75-21.35 49.45-28.85 51.05-28.7 51.05-31.7 58.6-31.7 58.6-28 61.05-27.75 60.35-20.25 58.6-20.4 58.6-8.7 55.1-8.7 60.25-7.3ZM74.24-2.15L73.49 0.6 62.54-2.4 64.19-8.6 64.19-17.25 62.54-17.7 64.49-25 73.29-22.6 71.74-16.8 71.74-7.7 74.49-6.95 74.94-8.6 74.94-17.25 73.29-17.7 75.24-25 84.04-22.6 82.49-16.8 82.49-7.7 84.04-7.3 82.09 0 74.24-2.15ZM96.04-7.3L94.09 0 85.29-2.4 86.84-8.2 86.84-31.1 94.39-32.95 94.39-7.75 96.04-7.3ZM123.59-4.4L116.04 0 105.79-4.8 106.34-6 106.34-26 104.79-26.4 106.74-33.7 115.54-31.3 113.89-25.1 113.89-9.35 116.84-7.95 119.04-9.3 119.99-7.25 116.99-21.25 118.59-21.6 115.94-22.3 117.89-29.6 126.69-27.2 124.89-20.4 126.94-10.8 125.49-5.5 123.59-4.4ZM138.58-2.15L137.98 0.15 128.43-2.45 128.98-4.5 128.98-19.6 132.93-19.6 134.43-25.5 149.28-21.6 147.38-14.25 146.38-14.5 146.38-7.85 148.98-7.15 147.03 0.15 138.58-2.15ZM136.53-17.15L136.53-8.1 138.83-7.45 138.83-7.5 138.83-16.55 136.53-17.15ZM165.78-5.8L158.83 0.1 151.03-2 154.63-8.85 163.63-6.4 159.48-12.3 155.53-9.55 150.28-17.1 156.08-22 156.08-22 161.73-26.75 169.43-24.7 165.78-17.85 157.38-20.15 161.08-14.85 164.98-17.6 168.23-12.95 167.73-7.45 165.78-5.8 165.78-5.8ZM181.93-7.15L179.98 0.15 170.43-2.45 172.38-9.75 173.13-9.55 173.13-28.95 180.68-32 180.68-21.25 181.68-25 191.58-22.3 190.83-19.45 190.83-3.05 183.28 0 183.28-16.75 180.68-17.45 180.68-7.5 181.93-7.15ZM203.48-7.3L201.53 0 192.73-2.4 194.28-8.2 194.28-16.5 192.73-16.9 194.68-24.2 203.48-21.8 201.83-15.6 201.83-7.75 203.48-7.3ZM202.48-30.3L201.03-25.1 193.63-27.15 195.08-32.35 202.48-30.3ZM219.97-5.8L213.02 0.1 205.22-2 208.82-8.85 217.82-6.4 213.67-12.3 209.72-9.55 204.47-17.1 210.27-22 210.27-22 215.92-26.75 223.62-24.7 219.97-17.85 211.57-20.15 215.27-14.85 219.17-17.6 222.42-12.95 221.92-7.45 219.97-5.8 219.97-5.8ZM236.12-7.3L234.17 0 225.37-2.4 226.92-8.2 226.92-21.15 224.62-21.35 225.32-28.85 226.92-28.7 226.92-31.7 234.47-31.7 234.47-28 236.92-27.75 236.22-20.25 234.47-20.4 234.47-8.7 230.97-8.7 236.12-7.3ZM248.57-2.15L247.97 0.15 238.42-2.45 238.97-4.5 238.97-19.6 242.92-19.6 244.42-25.5 259.27-21.6 257.37-14.25 256.37-14.5 256.37-7.85 258.97-7.15 257.02 0.15 248.57-2.15ZM246.52-17.15L246.52-8.1 248.82-7.45 248.82-7.5 248.82-16.55 246.52-17.15Z" opacity="1" transform="matrix(1,0,0,1,0,0)" fill="black" class="wordmark-text-0" id="SvgjsPath2391" stroke-width="5" stroke="black" stroke-linejoin="round"></path></svg></g></svg></g></svg></g></svg></g><g></g></svg></g></svg></g></svg></g></mask><g mask="url(#5c334652-58f2-40f9-9b64-ebf39ed10011)"><g><path d="M80.859 188.167l-13.253 49.615-59.809-16.312 10.534-39.42v-103.647l-17.331-4.758 13.253-49.614 55.392 15.292v0.34 20.049l9.855-35.681 71.024 19.37 5.437-19.37 77.821 21.409-11.215 40.779v98.89l11.215 3.058-13.254 49.615-53.352-14.613 4.077-14.612v-127.096l-22.088-6.116-3.059 10.874v98.89l11.215 3.058-13.254 49.615-53.353-14.613 4.078-14.612v-127.096l-25.147-6.796v110.444zM371.752 208.217l-51.314 29.905-69.665-32.624 3.738-8.155v-135.931l-10.534-2.719 13.253-49.615 59.809 16.312-11.214 42.138v107.046l20.05 9.515 14.952-9.175 6.457 13.933-20.39-95.152 10.875-2.379-18.011-4.757 13.253-49.615 59.81 16.312-12.234 46.216 13.933 65.247-9.855 36.022z" fill="url(#6898231d-3fd3-471e-9a40-1a5ac8dd0bd5)" fill-rule="nonzero" stroke="none" stroke-width="1" stroke-linecap="butt" stroke-linejoin="miter" stroke-miterlimit="10" stroke-dasharray="" stroke-dashoffset="0" font-family="none" font-weight="none" font-size="none" text-anchor="none" style="mix-blend-mode: normal" data-fill-palette-color="tertiary"></path></g></g><g transform="matrix(1,0,0,1,0,94.11046101309049)"><svg viewBox="0 0 395.52 58.97907797381901" height="58.97907797381901" width="395.52"><g><svg viewBox="0 0 395.52 58.97907797381901" height="58.97907797381901" width="395.52"><g><svg viewBox="0 0 395.52 58.97907797381901" height="58.97907797381901" width="395.52"><g><svg viewBox="0 0 395.52 58.97907797381901" height="58.97907797381901" width="395.52"><g id="textblocktransform"><svg viewBox="0 0 395.52 58.97907797381901" height="58.97907797381901" width="395.52" id="textblock"><g><svg viewBox="0 0 395.52 58.97907797381901" height="58.97907797381901" width="395.52"><g transform="matrix(1,0,0,1,0,0)"><svg width="395.52" viewBox="-2.25 -36.7 264.52 40.300000000000004" height="58.97907797381901" data-palette-color="url(#6c4d3ce7-dfec-42ea-9545-b2669480c793)"></svg></g></svg></g></svg></g></svg></g><g></g></svg></g></svg></g></svg></g></svg></g><defs></defs><mask id="ec9f9e62-0e7c-463c-8fea-72ebe5e8fa93"><g id="SvgjsG2403"><svg viewBox="0 0 395.52 247.2" height="247.2" width="395.52"><g><svg></svg></g><g><svg viewBox="0 0 395.52 247.2" height="247.2" width="395.52"><mask id="SvgjsMask2402"><rect width="395.52" height="247.2" fill="black"></rect><g transform="matrix(1,0,0,1,0,94.11046101309049)" id="SvgjsG2401"><svg viewBox="0 0 395.52 58.97907797381901" height="58.97907797381901" width="395.52"><g><svg viewBox="0 0 395.52 58.97907797381901" height="58.97907797381901" width="395.52"><g><svg viewBox="0 0 395.52 58.97907797381901" height="58.97907797381901" width="395.52"><g><svg viewBox="0 0 395.52 58.97907797381901" height="58.97907797381901" width="395.52"><g id="SvgjsG2400"><svg viewBox="0 0 395.52 58.97907797381901" height="58.97907797381901" width="395.52" id="SvgjsSvg2399"><g><svg viewBox="0 0 395.52 58.97907797381901" height="58.97907797381901" width="395.52"><g transform="matrix(1,0,0,1,0,0)"><svg width="395.52" viewBox="-2.25 -36.7 264.52 40.300000000000004" height="58.97907797381901" data-palette-color="url(#6c4d3ce7-dfec-42ea-9545-b2669480c793)"><path d="M12.5-7.35L10.55-0.05 1.75-2.45 3.3-8.25 3.3-23.5 0.75-24.2 2.7-31.5 10.85-29.25 10.85-29.2 10.85-26.25 12.3-31.5 22.75-28.65 23.55-31.5 35-28.35 33.35-22.35 33.35-7.8 35-7.35 33.05-0.05 25.2-2.2 25.8-4.35 25.8-23.05 22.55-23.95 22.1-22.35 22.1-7.8 23.75-7.35 21.8-0.05 13.95-2.2 14.55-4.35 14.55-23.05 10.85-24.05 10.85-7.8 12.5-7.35ZM47.25-7.3L45.3 0 36.5-2.4 38.05-8.2 38.05-16.5 36.5-16.9 38.45-24.2 47.25-21.8 45.6-15.6 45.6-7.75 47.25-7.3ZM46.25-30.3L44.8-25.1 37.4-27.15 38.85-32.35 46.25-30.3ZM60.25-7.3L58.3 0 49.5-2.4 51.05-8.2 51.05-21.15 48.75-21.35 49.45-28.85 51.05-28.7 51.05-31.7 58.6-31.7 58.6-28 61.05-27.75 60.35-20.25 58.6-20.4 58.6-8.7 55.1-8.7 60.25-7.3ZM74.24-2.15L73.49 0.6 62.54-2.4 64.19-8.6 64.19-17.25 62.54-17.7 64.49-25 73.29-22.6 71.74-16.8 71.74-7.7 74.49-6.95 74.94-8.6 74.94-17.25 73.29-17.7 75.24-25 84.04-22.6 82.49-16.8 82.49-7.7 84.04-7.3 82.09 0 74.24-2.15ZM96.04-7.3L94.09 0 85.29-2.4 86.84-8.2 86.84-31.1 94.39-32.95 94.39-7.75 96.04-7.3ZM123.59-4.4L116.04 0 105.79-4.8 106.34-6 106.34-26 104.79-26.4 106.74-33.7 115.54-31.3 113.89-25.1 113.89-9.35 116.84-7.95 119.04-9.3 119.99-7.25 116.99-21.25 118.59-21.6 115.94-22.3 117.89-29.6 126.69-27.2 124.89-20.4 126.94-10.8 125.49-5.5 123.59-4.4ZM138.58-2.15L137.98 0.15 128.43-2.45 128.98-4.5 128.98-19.6 132.93-19.6 134.43-25.5 149.28-21.6 147.38-14.25 146.38-14.5 146.38-7.85 148.98-7.15 147.03 0.15 138.58-2.15ZM136.53-17.15L136.53-8.1 138.83-7.45 138.83-7.5 138.83-16.55 136.53-17.15ZM165.78-5.8L158.83 0.1 151.03-2 154.63-8.85 163.63-6.4 159.48-12.3 155.53-9.55 150.28-17.1 156.08-22 156.08-22 161.73-26.75 169.43-24.7 165.78-17.85 157.38-20.15 161.08-14.85 164.98-17.6 168.23-12.95 167.73-7.45 165.78-5.8 165.78-5.8ZM181.93-7.15L179.98 0.15 170.43-2.45 172.38-9.75 173.13-9.55 173.13-28.95 180.68-32 180.68-21.25 181.68-25 191.58-22.3 190.83-19.45 190.83-3.05 183.28 0 183.28-16.75 180.68-17.45 180.68-7.5 181.93-7.15ZM203.48-7.3L201.53 0 192.73-2.4 194.28-8.2 194.28-16.5 192.73-16.9 194.68-24.2 203.48-21.8 201.83-15.6 201.83-7.75 203.48-7.3ZM202.48-30.3L201.03-25.1 193.63-27.15 195.08-32.35 202.48-30.3ZM219.97-5.8L213.02 0.1 205.22-2 208.82-8.85 217.82-6.4 213.67-12.3 209.72-9.55 204.47-17.1 210.27-22 210.27-22 215.92-26.75 223.62-24.7 219.97-17.85 211.57-20.15 215.27-14.85 219.17-17.6 222.42-12.95 221.92-7.45 219.97-5.8 219.97-5.8ZM236.12-7.3L234.17 0 225.37-2.4 226.92-8.2 226.92-21.15 224.62-21.35 225.32-28.85 226.92-28.7 226.92-31.7 234.47-31.7 234.47-28 236.92-27.75 236.22-20.25 234.47-20.4 234.47-8.7 230.97-8.7 236.12-7.3ZM248.57-2.15L247.97 0.15 238.42-2.45 238.97-4.5 238.97-19.6 242.92-19.6 244.42-25.5 259.27-21.6 257.37-14.25 256.37-14.5 256.37-7.85 258.97-7.15 257.02 0.15 248.57-2.15ZM246.52-17.15L246.52-8.1 248.82-7.45 248.82-7.5 248.82-16.55 246.52-17.15Z" opacity="1" transform="matrix(1,0,0,1,0,0)" fill="black" class="wordmark-text-0" id="SvgjsPath2398" stroke-width="5" stroke="black" stroke-linejoin="round"></path></svg></g></svg></g></svg></g></svg></g><g></g></svg></g></svg></g></svg></g></mask><g mask="url(#5c334652-58f2-40f9-9b64-ebf39ed10011)"><g><path d="M80.859 188.167l-13.253 49.615-59.809-16.312 10.534-39.42v-103.647l-17.331-4.758 13.253-49.614 55.392 15.292v0.34 20.049l9.855-35.681 71.024 19.37 5.437-19.37 77.821 21.409-11.215 40.779v98.89l11.215 3.058-13.254 49.615-53.352-14.613 4.077-14.612v-127.096l-22.088-6.116-3.059 10.874v98.89l11.215 3.058-13.254 49.615-53.353-14.613 4.078-14.612v-127.096l-25.147-6.796v110.444zM371.752 208.217l-51.314 29.905-69.665-32.624 3.738-8.155v-135.931l-10.534-2.719 13.253-49.615 59.809 16.312-11.214 42.138v107.046l20.05 9.515 14.952-9.175 6.457 13.933-20.39-95.152 10.875-2.379-18.011-4.757 13.253-49.615 59.81 16.312-12.234 46.216 13.933 65.247-9.855 36.022z" fill="black" fill-rule="nonzero" stroke="none" stroke-width="1" stroke-linecap="butt" stroke-linejoin="miter" stroke-miterlimit="10" stroke-dasharray="" stroke-dashoffset="0" font-family="none" font-weight="none" font-size="none" text-anchor="none" style="mix-blend-mode: normal"></path></g></g><g transform="matrix(1,0,0,1,0,94.11046101309049)"><svg viewBox="0 0 395.52 58.97907797381901" height="58.97907797381901" width="395.52"><g><svg viewBox="0 0 395.52 58.97907797381901" height="58.97907797381901" width="395.52"><g><svg viewBox="0 0 395.52 58.97907797381901" height="58.97907797381901" width="395.52"><g><svg viewBox="0 0 395.52 58.97907797381901" height="58.97907797381901" width="395.52"><g id="SvgjsG2397"><svg viewBox="0 0 395.52 58.97907797381901" height="58.97907797381901" width="395.52" id="SvgjsSvg2396"><g><svg viewBox="0 0 395.52 58.97907797381901" height="58.97907797381901" width="395.52"><g transform="matrix(1,0,0,1,0,0)"><svg width="395.52" viewBox="-2.25 -36.7 264.52 40.300000000000004" height="58.97907797381901" data-palette-color="url(#6c4d3ce7-dfec-42ea-9545-b2669480c793)"><path d="M12.5-7.35L10.55-0.05 1.75-2.45 3.3-8.25 3.3-23.5 0.75-24.2 2.7-31.5 10.85-29.25 10.85-29.2 10.85-26.25 12.3-31.5 22.75-28.65 23.55-31.5 35-28.35 33.35-22.35 33.35-7.8 35-7.35 33.05-0.05 25.2-2.2 25.8-4.35 25.8-23.05 22.55-23.95 22.1-22.35 22.1-7.8 23.75-7.35 21.8-0.05 13.95-2.2 14.55-4.35 14.55-23.05 10.85-24.05 10.85-7.8 12.5-7.35ZM47.25-7.3L45.3 0 36.5-2.4 38.05-8.2 38.05-16.5 36.5-16.9 38.45-24.2 47.25-21.8 45.6-15.6 45.6-7.75 47.25-7.3ZM46.25-30.3L44.8-25.1 37.4-27.15 38.85-32.35 46.25-30.3ZM60.25-7.3L58.3 0 49.5-2.4 51.05-8.2 51.05-21.15 48.75-21.35 49.45-28.85 51.05-28.7 51.05-31.7 58.6-31.7 58.6-28 61.05-27.75 60.35-20.25 58.6-20.4 58.6-8.7 55.1-8.7 60.25-7.3ZM74.24-2.15L73.49 0.6 62.54-2.4 64.19-8.6 64.19-17.25 62.54-17.7 64.49-25 73.29-22.6 71.74-16.8 71.74-7.7 74.49-6.95 74.94-8.6 74.94-17.25 73.29-17.7 75.24-25 84.04-22.6 82.49-16.8 82.49-7.7 84.04-7.3 82.09 0 74.24-2.15ZM96.04-7.3L94.09 0 85.29-2.4 86.84-8.2 86.84-31.1 94.39-32.95 94.39-7.75 96.04-7.3ZM123.59-4.4L116.04 0 105.79-4.8 106.34-6 106.34-26 104.79-26.4 106.74-33.7 115.54-31.3 113.89-25.1 113.89-9.35 116.84-7.95 119.04-9.3 119.99-7.25 116.99-21.25 118.59-21.6 115.94-22.3 117.89-29.6 126.69-27.2 124.89-20.4 126.94-10.8 125.49-5.5 123.59-4.4ZM138.58-2.15L137.98 0.15 128.43-2.45 128.98-4.5 128.98-19.6 132.93-19.6 134.43-25.5 149.28-21.6 147.38-14.25 146.38-14.5 146.38-7.85 148.98-7.15 147.03 0.15 138.58-2.15ZM136.53-17.15L136.53-8.1 138.83-7.45 138.83-7.5 138.83-16.55 136.53-17.15ZM165.78-5.8L158.83 0.1 151.03-2 154.63-8.85 163.63-6.4 159.48-12.3 155.53-9.55 150.28-17.1 156.08-22 156.08-22 161.73-26.75 169.43-24.7 165.78-17.85 157.38-20.15 161.08-14.85 164.98-17.6 168.23-12.95 167.73-7.45 165.78-5.8 165.78-5.8ZM181.93-7.15L179.98 0.15 170.43-2.45 172.38-9.75 173.13-9.55 173.13-28.95 180.68-32 180.68-21.25 181.68-25 191.58-22.3 190.83-19.45 190.83-3.05 183.28 0 183.28-16.75 180.68-17.45 180.68-7.5 181.93-7.15ZM203.48-7.3L201.53 0 192.73-2.4 194.28-8.2 194.28-16.5 192.73-16.9 194.68-24.2 203.48-21.8 201.83-15.6 201.83-7.75 203.48-7.3ZM202.48-30.3L201.03-25.1 193.63-27.15 195.08-32.35 202.48-30.3ZM219.97-5.8L213.02 0.1 205.22-2 208.82-8.85 217.82-6.4 213.67-12.3 209.72-9.55 204.47-17.1 210.27-22 210.27-22 215.92-26.75 223.62-24.7 219.97-17.85 211.57-20.15 215.27-14.85 219.17-17.6 222.42-12.95 221.92-7.45 219.97-5.8 219.97-5.8ZM236.12-7.3L234.17 0 225.37-2.4 226.92-8.2 226.92-21.15 224.62-21.35 225.32-28.85 226.92-28.7 226.92-31.7 234.47-31.7 234.47-28 236.92-27.75 236.22-20.25 234.47-20.4 234.47-8.7 230.97-8.7 236.12-7.3ZM248.57-2.15L247.97 0.15 238.42-2.45 238.97-4.5 238.97-19.6 242.92-19.6 244.42-25.5 259.27-21.6 257.37-14.25 256.37-14.5 256.37-7.85 258.97-7.15 257.02 0.15 248.57-2.15ZM246.52-17.15L246.52-8.1 248.82-7.45 248.82-7.5 248.82-16.55 246.52-17.15Z" opacity="1" transform="matrix(1,0,0,1,0,0)" fill="white" class="wordmark-text-0" id="SvgjsPath2395"></path></svg></g></svg></g></svg></g></svg></g><g></g></svg></g></svg></g></svg></g></svg></g><defs><mask></mask></defs></svg><rect width="395.52" height="247.2" fill="black" stroke="none" visibility="hidden"></rect></g></mask><linearGradient x1="0.054" x2="0.941" y1="0.5" y2="0.5" id="6c4d3ce7-dfec-42ea-9545-b2669480c793"><stop stop-color="#26282a" offset="0"></stop><stop stop-color="#9e9fa0" offset="0.498"></stop><stop stop-color="#26282a" offset="1"></stop></linearGradient><rect width="395.52" height="247.2" fill="url(#6c4d3ce7-dfec-42ea-9545-b2669480c793)" mask="url(#ec9f9e62-0e7c-463c-8fea-72ebe5e8fa93)" data-fill-palette-color="primary"></rect><mask id="f3f0575a-b8e1-454c-92a4-03b95221f92d"><g id="SvgjsG2456"><svg viewBox="0 0 395.52 247.2" height="247.2" width="395.52"><g><svg></svg></g><g><svg viewBox="0 0 395.52 247.2" height="247.2" width="395.52"><mask id="SvgjsMask2455"><rect width="395.52" height="247.2" fill="black"></rect><g transform="matrix(1,0,0,1,0,94.11046101309049)" id="SvgjsG2454"><svg viewBox="0 0 395.52 58.97907797381901" height="58.97907797381901" width="395.52"><g><svg viewBox="0 0 395.52 58.97907797381901" height="58.97907797381901" width="395.52"><g><svg viewBox="0 0 395.52 58.97907797381901" height="58.97907797381901" width="395.52"><g><svg viewBox="0 0 395.52 58.97907797381901" height="58.97907797381901" width="395.52"><g id="SvgjsG2453"><svg viewBox="0 0 395.52 58.97907797381901" height="58.97907797381901" width="395.52" id="SvgjsSvg2452"><g><svg viewBox="0 0 395.52 58.97907797381901" height="58.97907797381901" width="395.52"><g transform="matrix(1,0,0,1,0,0)"><svg width="395.52" viewBox="-2.25 -36.7 264.52 40.300000000000004" height="58.97907797381901" data-palette-color="url(#6c4d3ce7-dfec-42ea-9545-b2669480c793)"><path d="M12.5-7.35L10.55-0.05 1.75-2.45 3.3-8.25 3.3-23.5 0.75-24.2 2.7-31.5 10.85-29.25 10.85-29.2 10.85-26.25 12.3-31.5 22.75-28.65 23.55-31.5 35-28.35 33.35-22.35 33.35-7.8 35-7.35 33.05-0.05 25.2-2.2 25.8-4.35 25.8-23.05 22.55-23.95 22.1-22.35 22.1-7.8 23.75-7.35 21.8-0.05 13.95-2.2 14.55-4.35 14.55-23.05 10.85-24.05 10.85-7.8 12.5-7.35ZM47.25-7.3L45.3 0 36.5-2.4 38.05-8.2 38.05-16.5 36.5-16.9 38.45-24.2 47.25-21.8 45.6-15.6 45.6-7.75 47.25-7.3ZM46.25-30.3L44.8-25.1 37.4-27.15 38.85-32.35 46.25-30.3ZM60.25-7.3L58.3 0 49.5-2.4 51.05-8.2 51.05-21.15 48.75-21.35 49.45-28.85 51.05-28.7 51.05-31.7 58.6-31.7 58.6-28 61.05-27.75 60.35-20.25 58.6-20.4 58.6-8.7 55.1-8.7 60.25-7.3ZM74.24-2.15L73.49 0.6 62.54-2.4 64.19-8.6 64.19-17.25 62.54-17.7 64.49-25 73.29-22.6 71.74-16.8 71.74-7.7 74.49-6.95 74.94-8.6 74.94-17.25 73.29-17.7 75.24-25 84.04-22.6 82.49-16.8 82.49-7.7 84.04-7.3 82.09 0 74.24-2.15ZM96.04-7.3L94.09 0 85.29-2.4 86.84-8.2 86.84-31.1 94.39-32.95 94.39-7.75 96.04-7.3ZM123.59-4.4L116.04 0 105.79-4.8 106.34-6 106.34-26 104.79-26.4 106.74-33.7 115.54-31.3 113.89-25.1 113.89-9.35 116.84-7.95 119.04-9.3 119.99-7.25 116.99-21.25 118.59-21.6 115.94-22.3 117.89-29.6 126.69-27.2 124.89-20.4 126.94-10.8 125.49-5.5 123.59-4.4ZM138.58-2.15L137.98 0.15 128.43-2.45 128.98-4.5 128.98-19.6 132.93-19.6 134.43-25.5 149.28-21.6 147.38-14.25 146.38-14.5 146.38-7.85 148.98-7.15 147.03 0.15 138.58-2.15ZM136.53-17.15L136.53-8.1 138.83-7.45 138.83-7.5 138.83-16.55 136.53-17.15ZM165.78-5.8L158.83 0.1 151.03-2 154.63-8.85 163.63-6.4 159.48-12.3 155.53-9.55 150.28-17.1 156.08-22 156.08-22 161.73-26.75 169.43-24.7 165.78-17.85 157.38-20.15 161.08-14.85 164.98-17.6 168.23-12.95 167.73-7.45 165.78-5.8 165.78-5.8ZM181.93-7.15L179.98 0.15 170.43-2.45 172.38-9.75 173.13-9.55 173.13-28.95 180.68-32 180.68-21.25 181.68-25 191.58-22.3 190.83-19.45 190.83-3.05 183.28 0 183.28-16.75 180.68-17.45 180.68-7.5 181.93-7.15ZM203.48-7.3L201.53 0 192.73-2.4 194.28-8.2 194.28-16.5 192.73-16.9 194.68-24.2 203.48-21.8 201.83-15.6 201.83-7.75 203.48-7.3ZM202.48-30.3L201.03-25.1 193.63-27.15 195.08-32.35 202.48-30.3ZM219.97-5.8L213.02 0.1 205.22-2 208.82-8.85 217.82-6.4 213.67-12.3 209.72-9.55 204.47-17.1 210.27-22 210.27-22 215.92-26.75 223.62-24.7 219.97-17.85 211.57-20.15 215.27-14.85 219.17-17.6 222.42-12.95 221.92-7.45 219.97-5.8 219.97-5.8ZM236.12-7.3L234.17 0 225.37-2.4 226.92-8.2 226.92-21.15 224.62-21.35 225.32-28.85 226.92-28.7 226.92-31.7 234.47-31.7 234.47-28 236.92-27.75 236.22-20.25 234.47-20.4 234.47-8.7 230.97-8.7 236.12-7.3ZM248.57-2.15L247.97 0.15 238.42-2.45 238.97-4.5 238.97-19.6 242.92-19.6 244.42-25.5 259.27-21.6 257.37-14.25 256.37-14.5 256.37-7.85 258.97-7.15 257.02 0.15 248.57-2.15ZM246.52-17.15L246.52-8.1 248.82-7.45 248.82-7.5 248.82-16.55 246.52-17.15Z" opacity="1" transform="matrix(1,0,0,1,0,0)" fill="black" class="wordmark-text-0" id="SvgjsPath2451" stroke-width="5" stroke="black" stroke-linejoin="round"></path></svg></g></svg></g></svg></g></svg></g><g></g></svg></g></svg></g></svg></g></mask><g mask="url(#5c334652-58f2-40f9-9b64-ebf39ed10011)"><g><path d="M80.859 188.167l-13.253 49.615-59.809-16.312 10.534-39.42v-103.647l-17.331-4.758 13.253-49.614 55.392 15.292v0.34 20.049l9.855-35.681 71.024 19.37 5.437-19.37 77.821 21.409-11.215 40.779v98.89l11.215 3.058-13.254 49.615-53.352-14.613 4.077-14.612v-127.096l-22.088-6.116-3.059 10.874v98.89l11.215 3.058-13.254 49.615-53.353-14.613 4.078-14.612v-127.096l-25.147-6.796v110.444zM371.752 208.217l-51.314 29.905-69.665-32.624 3.738-8.155v-135.931l-10.534-2.719 13.253-49.615 59.809 16.312-11.214 42.138v107.046l20.05 9.515 14.952-9.175 6.457 13.933-20.39-95.152 10.875-2.379-18.011-4.757 13.253-49.615 59.81 16.312-12.234 46.216 13.933 65.247-9.855 36.022z" fill="white" fill-rule="nonzero" stroke="none" stroke-width="1" stroke-linecap="butt" stroke-linejoin="miter" stroke-miterlimit="10" stroke-dasharray="" stroke-dashoffset="0" font-family="none" font-weight="none" font-size="none" text-anchor="none" style="mix-blend-mode: normal"></path></g></g><g transform="matrix(1,0,0,1,0,94.11046101309049)"><svg viewBox="0 0 395.52 58.97907797381901" height="58.97907797381901" width="395.52"><g><svg viewBox="0 0 395.52 58.97907797381901" height="58.97907797381901" width="395.52"><g><svg viewBox="0 0 395.52 58.97907797381901" height="58.97907797381901" width="395.52"><g><svg viewBox="0 0 395.52 58.97907797381901" height="58.97907797381901" width="395.52"><g id="SvgjsG2450"><svg viewBox="0 0 395.52 58.97907797381901" height="58.97907797381901" width="395.52" id="SvgjsSvg2449"><g><svg viewBox="0 0 395.52 58.97907797381901" height="58.97907797381901" width="395.52"><g transform="matrix(1,0,0,1,0,0)"><svg width="395.52" viewBox="-2.25 -36.7 264.52 40.300000000000004" height="58.97907797381901" data-palette-color="url(#6c4d3ce7-dfec-42ea-9545-b2669480c793)"></svg></g></svg></g></svg></g></svg></g><g></g></svg></g></svg></g></svg></g></svg></g><defs><mask></mask></defs><mask><g id="SvgjsG2448"><svg viewBox="0 0 395.52 247.2" height="247.2" width="395.52"><g><svg></svg></g><g><svg viewBox="0 0 395.52 247.2" height="247.2" width="395.52"><mask id="SvgjsMask2447"><rect width="395.52" height="247.2" fill="black"></rect><g transform="matrix(1,0,0,1,0,94.11046101309049)" id="SvgjsG2446"><svg viewBox="0 0 395.52 58.97907797381901" height="58.97907797381901" width="395.52"><g><svg viewBox="0 0 395.52 58.97907797381901" height="58.97907797381901" width="395.52"><g><svg viewBox="0 0 395.52 58.97907797381901" height="58.97907797381901" width="395.52"><g><svg viewBox="0 0 395.52 58.97907797381901" height="58.97907797381901" width="395.52"><g id="SvgjsG2445"><svg viewBox="0 0 395.52 58.97907797381901" height="58.97907797381901" width="395.52" id="SvgjsSvg2444"><g><svg viewBox="0 0 395.52 58.97907797381901" height="58.97907797381901" width="395.52"><g transform="matrix(1,0,0,1,0,0)"><svg width="395.52" viewBox="-2.25 -36.7 264.52 40.300000000000004" height="58.97907797381901" data-palette-color="url(#6c4d3ce7-dfec-42ea-9545-b2669480c793)"><path d="M12.5-7.35L10.55-0.05 1.75-2.45 3.3-8.25 3.3-23.5 0.75-24.2 2.7-31.5 10.85-29.25 10.85-29.2 10.85-26.25 12.3-31.5 22.75-28.65 23.55-31.5 35-28.35 33.35-22.35 33.35-7.8 35-7.35 33.05-0.05 25.2-2.2 25.8-4.35 25.8-23.05 22.55-23.95 22.1-22.35 22.1-7.8 23.75-7.35 21.8-0.05 13.95-2.2 14.55-4.35 14.55-23.05 10.85-24.05 10.85-7.8 12.5-7.35ZM47.25-7.3L45.3 0 36.5-2.4 38.05-8.2 38.05-16.5 36.5-16.9 38.45-24.2 47.25-21.8 45.6-15.6 45.6-7.75 47.25-7.3ZM46.25-30.3L44.8-25.1 37.4-27.15 38.85-32.35 46.25-30.3ZM60.25-7.3L58.3 0 49.5-2.4 51.05-8.2 51.05-21.15 48.75-21.35 49.45-28.85 51.05-28.7 51.05-31.7 58.6-31.7 58.6-28 61.05-27.75 60.35-20.25 58.6-20.4 58.6-8.7 55.1-8.7 60.25-7.3ZM74.24-2.15L73.49 0.6 62.54-2.4 64.19-8.6 64.19-17.25 62.54-17.7 64.49-25 73.29-22.6 71.74-16.8 71.74-7.7 74.49-6.95 74.94-8.6 74.94-17.25 73.29-17.7 75.24-25 84.04-22.6 82.49-16.8 82.49-7.7 84.04-7.3 82.09 0 74.24-2.15ZM96.04-7.3L94.09 0 85.29-2.4 86.84-8.2 86.84-31.1 94.39-32.95 94.39-7.75 96.04-7.3ZM123.59-4.4L116.04 0 105.79-4.8 106.34-6 106.34-26 104.79-26.4 106.74-33.7 115.54-31.3 113.89-25.1 113.89-9.35 116.84-7.95 119.04-9.3 119.99-7.25 116.99-21.25 118.59-21.6 115.94-22.3 117.89-29.6 126.69-27.2 124.89-20.4 126.94-10.8 125.49-5.5 123.59-4.4ZM138.58-2.15L137.98 0.15 128.43-2.45 128.98-4.5 128.98-19.6 132.93-19.6 134.43-25.5 149.28-21.6 147.38-14.25 146.38-14.5 146.38-7.85 148.98-7.15 147.03 0.15 138.58-2.15ZM136.53-17.15L136.53-8.1 138.83-7.45 138.83-7.5 138.83-16.55 136.53-17.15ZM165.78-5.8L158.83 0.1 151.03-2 154.63-8.85 163.63-6.4 159.48-12.3 155.53-9.55 150.28-17.1 156.08-22 156.08-22 161.73-26.75 169.43-24.7 165.78-17.85 157.38-20.15 161.08-14.85 164.98-17.6 168.23-12.95 167.73-7.45 165.78-5.8 165.78-5.8ZM181.93-7.15L179.98 0.15 170.43-2.45 172.38-9.75 173.13-9.55 173.13-28.95 180.68-32 180.68-21.25 181.68-25 191.58-22.3 190.83-19.45 190.83-3.05 183.28 0 183.28-16.75 180.68-17.45 180.68-7.5 181.93-7.15ZM203.48-7.3L201.53 0 192.73-2.4 194.28-8.2 194.28-16.5 192.73-16.9 194.68-24.2 203.48-21.8 201.83-15.6 201.83-7.75 203.48-7.3ZM202.48-30.3L201.03-25.1 193.63-27.15 195.08-32.35 202.48-30.3ZM219.97-5.8L213.02 0.1 205.22-2 208.82-8.85 217.82-6.4 213.67-12.3 209.72-9.55 204.47-17.1 210.27-22 210.27-22 215.92-26.75 223.62-24.7 219.97-17.85 211.57-20.15 215.27-14.85 219.17-17.6 222.42-12.95 221.92-7.45 219.97-5.8 219.97-5.8ZM236.12-7.3L234.17 0 225.37-2.4 226.92-8.2 226.92-21.15 224.62-21.35 225.32-28.85 226.92-28.7 226.92-31.7 234.47-31.7 234.47-28 236.92-27.75 236.22-20.25 234.47-20.4 234.47-8.7 230.97-8.7 236.12-7.3ZM248.57-2.15L247.97 0.15 238.42-2.45 238.97-4.5 238.97-19.6 242.92-19.6 244.42-25.5 259.27-21.6 257.37-14.25 256.37-14.5 256.37-7.85 258.97-7.15 257.02 0.15 248.57-2.15ZM246.52-17.15L246.52-8.1 248.82-7.45 248.82-7.5 248.82-16.55 246.52-17.15Z" opacity="1" transform="matrix(1,0,0,1,0,0)" fill="black" class="wordmark-text-0" id="SvgjsPath2443" stroke-width="5" stroke="black" stroke-linejoin="round"></path></svg></g></svg></g></svg></g></svg></g><g></g></svg></g></svg></g></svg></g></mask><g mask="url(#5c334652-58f2-40f9-9b64-ebf39ed10011)"><g><path d="M80.859 188.167l-13.253 49.615-59.809-16.312 10.534-39.42v-103.647l-17.331-4.758 13.253-49.614 55.392 15.292v0.34 20.049l9.855-35.681 71.024 19.37 5.437-19.37 77.821 21.409-11.215 40.779v98.89l11.215 3.058-13.254 49.615-53.352-14.613 4.077-14.612v-127.096l-22.088-6.116-3.059 10.874v98.89l11.215 3.058-13.254 49.615-53.353-14.613 4.078-14.612v-127.096l-25.147-6.796v110.444zM371.752 208.217l-51.314 29.905-69.665-32.624 3.738-8.155v-135.931l-10.534-2.719 13.253-49.615 59.809 16.312-11.214 42.138v107.046l20.05 9.515 14.952-9.175 6.457 13.933-20.39-95.152 10.875-2.379-18.011-4.757 13.253-49.615 59.81 16.312-12.234 46.216 13.933 65.247-9.855 36.022z" fill="black" fill-rule="nonzero" stroke="none" stroke-width="1" stroke-linecap="butt" stroke-linejoin="miter" stroke-miterlimit="10" stroke-dasharray="" stroke-dashoffset="0" font-family="none" font-weight="none" font-size="none" text-anchor="none" style="mix-blend-mode: normal"></path></g></g><g transform="matrix(1,0,0,1,0,94.11046101309049)"><svg viewBox="0 0 395.52 58.97907797381901" height="58.97907797381901" width="395.52"><g><svg viewBox="0 0 395.52 58.97907797381901" height="58.97907797381901" width="395.52"><g><svg viewBox="0 0 395.52 58.97907797381901" height="58.97907797381901" width="395.52"><g><svg viewBox="0 0 395.52 58.97907797381901" height="58.97907797381901" width="395.52"><g id="SvgjsG2442"><svg viewBox="0 0 395.52 58.97907797381901" height="58.97907797381901" width="395.52" id="SvgjsSvg2441"><g><svg viewBox="0 0 395.52 58.97907797381901" height="58.97907797381901" width="395.52"><g transform="matrix(1,0,0,1,0,0)"><svg width="395.52" viewBox="-2.25 -36.7 264.52 40.300000000000004" height="58.97907797381901" data-palette-color="url(#6c4d3ce7-dfec-42ea-9545-b2669480c793)"><path d="M12.5-7.35L10.55-0.05 1.75-2.45 3.3-8.25 3.3-23.5 0.75-24.2 2.7-31.5 10.85-29.25 10.85-29.2 10.85-26.25 12.3-31.5 22.75-28.65 23.55-31.5 35-28.35 33.35-22.35 33.35-7.8 35-7.35 33.05-0.05 25.2-2.2 25.8-4.35 25.8-23.05 22.55-23.95 22.1-22.35 22.1-7.8 23.75-7.35 21.8-0.05 13.95-2.2 14.55-4.35 14.55-23.05 10.85-24.05 10.85-7.8 12.5-7.35ZM47.25-7.3L45.3 0 36.5-2.4 38.05-8.2 38.05-16.5 36.5-16.9 38.45-24.2 47.25-21.8 45.6-15.6 45.6-7.75 47.25-7.3ZM46.25-30.3L44.8-25.1 37.4-27.15 38.85-32.35 46.25-30.3ZM60.25-7.3L58.3 0 49.5-2.4 51.05-8.2 51.05-21.15 48.75-21.35 49.45-28.85 51.05-28.7 51.05-31.7 58.6-31.7 58.6-28 61.05-27.75 60.35-20.25 58.6-20.4 58.6-8.7 55.1-8.7 60.25-7.3ZM74.24-2.15L73.49 0.6 62.54-2.4 64.19-8.6 64.19-17.25 62.54-17.7 64.49-25 73.29-22.6 71.74-16.8 71.74-7.7 74.49-6.95 74.94-8.6 74.94-17.25 73.29-17.7 75.24-25 84.04-22.6 82.49-16.8 82.49-7.7 84.04-7.3 82.09 0 74.24-2.15ZM96.04-7.3L94.09 0 85.29-2.4 86.84-8.2 86.84-31.1 94.39-32.95 94.39-7.75 96.04-7.3ZM123.59-4.4L116.04 0 105.79-4.8 106.34-6 106.34-26 104.79-26.4 106.74-33.7 115.54-31.3 113.89-25.1 113.89-9.35 116.84-7.95 119.04-9.3 119.99-7.25 116.99-21.25 118.59-21.6 115.94-22.3 117.89-29.6 126.69-27.2 124.89-20.4 126.94-10.8 125.49-5.5 123.59-4.4ZM138.58-2.15L137.98 0.15 128.43-2.45 128.98-4.5 128.98-19.6 132.93-19.6 134.43-25.5 149.28-21.6 147.38-14.25 146.38-14.5 146.38-7.85 148.98-7.15 147.03 0.15 138.58-2.15ZM136.53-17.15L136.53-8.1 138.83-7.45 138.83-7.5 138.83-16.55 136.53-17.15ZM165.78-5.8L158.83 0.1 151.03-2 154.63-8.85 163.63-6.4 159.48-12.3 155.53-9.55 150.28-17.1 156.08-22 156.08-22 161.73-26.75 169.43-24.7 165.78-17.85 157.38-20.15 161.08-14.85 164.98-17.6 168.23-12.95 167.73-7.45 165.78-5.8 165.78-5.8ZM181.93-7.15L179.98 0.15 170.43-2.45 172.38-9.75 173.13-9.55 173.13-28.95 180.68-32 180.68-21.25 181.68-25 191.58-22.3 190.83-19.45 190.83-3.05 183.28 0 183.28-16.75 180.68-17.45 180.68-7.5 181.93-7.15ZM203.48-7.3L201.53 0 192.73-2.4 194.28-8.2 194.28-16.5 192.73-16.9 194.68-24.2 203.48-21.8 201.83-15.6 201.83-7.75 203.48-7.3ZM202.48-30.3L201.03-25.1 193.63-27.15 195.08-32.35 202.48-30.3ZM219.97-5.8L213.02 0.1 205.22-2 208.82-8.85 217.82-6.4 213.67-12.3 209.72-9.55 204.47-17.1 210.27-22 210.27-22 215.92-26.75 223.62-24.7 219.97-17.85 211.57-20.15 215.27-14.85 219.17-17.6 222.42-12.95 221.92-7.45 219.97-5.8 219.97-5.8ZM236.12-7.3L234.17 0 225.37-2.4 226.92-8.2 226.92-21.15 224.62-21.35 225.32-28.85 226.92-28.7 226.92-31.7 234.47-31.7 234.47-28 236.92-27.75 236.22-20.25 234.47-20.4 234.47-8.7 230.97-8.7 236.12-7.3ZM248.57-2.15L247.97 0.15 238.42-2.45 238.97-4.5 238.97-19.6 242.92-19.6 244.42-25.5 259.27-21.6 257.37-14.25 256.37-14.5 256.37-7.85 258.97-7.15 257.02 0.15 248.57-2.15ZM246.52-17.15L246.52-8.1 248.82-7.45 248.82-7.5 248.82-16.55 246.52-17.15Z" opacity="1" transform="matrix(1,0,0,1,0,0)" fill="black" class="wordmark-text-0" id="SvgjsPath2440"></path></svg></g></svg></g></svg></g></svg></g><g></g></svg></g></svg></g></svg></g></svg></g><defs><mask></mask></defs></svg><rect width="395.52" height="247.2" fill="black" stroke="none" visibility="hidden"></rect></g></mask></svg><rect width="395.52" height="247.2" fill="black" stroke="none" visibility="hidden"></rect></g></mask><linearGradient x1="0.054" x2="0.941" y1="0.5" y2="0.5" id="6898231d-3fd3-471e-9a40-1a5ac8dd0bd5"><stop stop-color="#26282a" offset="0"></stop><stop stop-color="#9e9fa0" offset="0.498"></stop><stop stop-color="#26282a" offset="1"></stop></linearGradient></svg><rect width="395.52" height="247.2" fill="none" stroke="none" visibility="hidden"></rect></g></svg></g></svg>